<?xml version="1.0" standalone="no"?>
<!DOCTYPE svg PUBLIC "-//W3C//DTD SVG 20010904//EN"
 "http://www.w3.org/TR/2001/REC-SVG-20010904/DTD/svg10.dtd">
<svg version="1.0" xmlns="http://www.w3.org/2000/svg"
 width="700.000000pt" height="700.000000pt" viewBox="0 0 700.000000 700.000000"
 preserveAspectRatio="xMidYMid meet">
<metadata>
Created by potrace 1.14, written by Peter Selinger 2001-2017
</metadata>
<g transform="translate(0.000000,700.000000) scale(0.100000,-0.100000)"
fill="#000000" stroke="none">
<path d="M3025 6654 c-507 -39 -925 -232 -1054 -488 l-32 -63 -112 -56 c-210
-104 -388 -292 -491 -520 -78 -170 -106 -431 -75 -693 11 -88 1 -252 -18 -301
-3 -8 2 -13 15 -13 12 0 30 16 47 42 l27 41 22 -84 c12 -46 52 -150 88 -230
37 -80 81 -188 99 -240 35 -101 44 -119 64 -119 16 0 35 51 35 94 l1 31 25
-30 c61 -72 103 -109 166 -146 37 -22 72 -48 78 -59 11 -20 112 -100 127 -100
4 0 8 -37 8 -82 0 -72 4 -92 31 -148 55 -116 123 -172 249 -205 91 -23 162
-19 272 16 94 30 97 31 132 14 119 -57 233 -91 349 -106 122 -15 393 -7 486
16 82 19 95 16 88 -22 -7 -41 -25 -57 -151 -141 -89 -58 -128 -78 -180 -89
-80 -18 -94 -30 -136 -113 -35 -70 -219 -526 -230 -573 -10 -39 6 -53 86 -72
38 -10 71 -21 74 -25 3 -4 -4 -57 -15 -116 -101 -569 -100 -543 -32 -571 38
-16 38 -11 20 -275 -14 -212 -12 -217 76 -237 41 -9 56 -17 56 -29 1 -47 30
-378 40 -438 19 -121 37 -171 73 -198 76 -58 262 -63 303 -8 20 26 16 80 -8
115 -21 29 -22 43 -26 264 l-5 233 82 0 c78 0 82 1 91 26 6 14 10 44 10 67 1
54 26 197 37 208 13 13 66 21 80 12 6 -5 19 -65 28 -133 23 -182 16 -167 80
-175 30 -3 57 -9 59 -13 2 -4 7 -113 11 -243 6 -198 5 -238 -7 -250 -8 -8 -22
-26 -32 -41 -15 -24 -16 -29 -2 -61 20 -48 65 -61 173 -49 127 15 160 40 188
149 12 47 45 405 45 489 0 17 8 23 38 29 107 19 133 28 143 46 7 14 2 87 -21
267 -17 136 -33 253 -35 260 -3 8 10 19 31 28 19 8 37 20 40 27 2 7 -9 76 -26
153 -16 76 -52 245 -79 374 -27 129 -52 242 -56 250 -4 11 12 28 50 55 31 23
55 48 55 58 0 25 -15 52 -152 276 -211 342 -220 354 -296 402 l-67 44 -100 1
c-55 0 -110 6 -122 12 -24 13 -50 79 -37 92 5 4 27 13 49 20 136 42 324 158
425 260 158 160 231 324 248 551 l7 102 70 28 c98 40 144 76 187 144 71 117
89 227 53 335 -39 119 -85 183 -147 202 l-40 12 4 45 c3 25 13 85 23 132 21
100 16 154 -20 225 -13 27 -23 49 -21 51 1 1 21 -4 44 -13 70 -28 77 -14 29
59 -23 35 -70 126 -105 203 -34 76 -80 163 -102 192 -22 29 -40 54 -40 55 0 2
26 0 58 -4 110 -13 147 11 67 44 -86 36 -165 97 -298 231 -77 77 -165 154
-205 180 -94 61 -232 130 -315 157 l-67 22 49 17 c55 18 101 46 101 60 0 6
-44 10 -107 10 -66 0 -153 8 -223 21 -112 20 -379 32 -505 23z m172 -50 c-3
-3 -12 -4 -19 -1 -8 3 -5 6 6 6 11 1 17 -2 13 -5z m-77 -14 c0 -6 -31 -10 -72
-11 -108 -1 -194 -18 -260 -50 -12 -6 -20 -4 -26 7 -6 11 -16 13 -36 8 -20 -5
-24 -9 -15 -15 17 -10 -23 -27 -106 -45 -33 -7 -76 -17 -95 -22 -42 -11 -190
-88 -184 -95 3 -3 0 -8 -7 -13 -8 -4 -10 -3 -5 4 14 23 -11 12 -39 -18 -15
-16 -31 -28 -34 -26 -10 6 -97 -72 -89 -79 4 -4 24 9 43 30 29 29 39 35 48 25
9 -10 9 -11 0 -6 -7 4 -21 -6 -34 -24 -13 -16 -29 -30 -36 -30 -7 0 -13 -4
-13 -10 0 -5 -9 -2 -20 7 -11 10 -20 22 -20 27 0 13 78 86 93 86 14 1 55 30
41 30 -10 0 25 22 76 45 19 9 43 23 54 33 11 9 16 11 12 4 -4 -7 7 -4 26 8 18
11 44 20 58 20 20 0 22 2 10 10 -11 8 -7 9 14 4 23 -5 27 -4 21 6 -6 10 -4 12
8 7 22 -8 78 3 71 14 -3 5 2 6 11 3 19 -8 67 4 61 15 -6 9 106 32 185 37 31 2
67 8 80 13 32 13 179 14 179 1z m265 -1 c-56 -11 -105 -11 -105 1 0 6 30 10
73 9 65 -1 68 -2 32 -10z m80 -22 c11 -2 5 -3 -13 -1 -26 2 -33 0 -28 -11 4
-11 -2 -15 -19 -15 -13 0 -29 -8 -34 -17 -7 -13 -10 -14 -11 -4 0 8 8 20 18
27 16 13 16 13 0 14 -10 0 -18 5 -18 11 0 6 9 8 20 4 11 -3 28 -2 37 4 10 5
20 6 23 1 3 -4 14 -10 25 -13z m149 -7 c-11 -4 -56 -10 -100 -14 l-79 -5 65
13 c77 16 147 20 114 6z m-654 -10 c0 -12 -17 -12 -45 0 -17 7 -15 9 13 9 17
1 32 -3 32 -9z m-313 -16 c-3 -3 -12 -4 -19 -1 -8 3 -5 6 6 6 11 1 17 -2 13
-5z m253 -4 c20 -6 21 -8 5 -8 -11 0 -29 3 -40 8 -25 11 1 11 35 0z m-182 -60
c4 -12 2 -13 -9 -2 -16 14 -39 16 -39 2 0 -5 7 -10 15 -10 8 0 15 -4 15 -10 0
-15 -16 -12 -30 5 -7 8 -22 16 -34 16 -16 1 -13 3 9 9 42 11 68 8 73 -10z
m893 9 c11 -5 38 -11 61 -11 22 0 35 -4 29 -7 -17 -11 37 -33 60 -26 11 4 19
2 19 -4 0 -6 6 -8 14 -5 7 3 16 -2 20 -11 3 -10 12 -15 21 -11 8 3 15 1 15 -4
0 -5 19 -15 43 -22 23 -6 44 -14 47 -18 16 -17 72 -50 66 -39 -4 8 -1 6 7 -3
8 -10 19 -18 26 -18 6 0 11 -4 11 -10 0 -5 6 -7 14 -4 11 4 13 0 9 -15 -3 -12
-9 -21 -14 -21 -12 0 -49 21 -67 38 -15 14 -36 16 -28 3 4 -5 -4 -7 -16 -3
-20 5 -20 6 -4 12 15 5 7 12 -35 32 -88 42 -141 64 -194 78 -27 7 -53 18 -56
23 -4 5 -12 8 -19 5 -9 -3 -8 -8 3 -18 40 -37 44 -39 56 -27 6 6 14 7 18 3 4
-4 1 -12 -7 -17 -11 -7 -3 -9 25 -4 22 3 46 2 52 -3 19 -12 -88 -7 -117 6 -37
17 -61 38 -58 52 2 9 -21 12 -87 13 l-90 0 83 6 c107 8 107 26 0 27 l-83 1 80
-7 80 -7 -86 1 c-65 1 -85 -2 -82 -11 3 -7 0 -13 -6 -13 -18 0 -12 38 7 43 35
9 164 7 183 -4z m-211 -6 c0 -14 -19 -38 -25 -32 -8 8 5 39 16 39 5 0 9 -3 9
-7z m-805 -23 c-11 -5 -29 -9 -40 -9 -17 -1 -17 1 -5 9 8 5 26 9 40 9 23 0 23
-1 5 -9z m62 -6 c-3 -3 -12 -4 -19 -1 -8 3 -5 6 6 6 11 1 17 -2 13 -5z m366
-11 c-13 -2 -33 -2 -45 0 -13 2 -3 4 22 4 25 0 35 -2 23 -4z m-553 -23 c0 -5
-9 -10 -21 -10 -11 0 -17 5 -14 10 3 6 13 10 21 10 8 0 14 -4 14 -10z m-56
-29 c3 -5 0 -11 -7 -14 -8 -3 -14 1 -14 9 0 16 13 19 21 5z m1206 -1 c0 -5 -4
-10 -10 -10 -5 0 -10 5 -10 10 0 6 5 10 10 10 6 0 10 -4 10 -10z m-1140 -10
c0 -5 -2 -10 -4 -10 -3 0 -8 5 -11 10 -3 6 -1 10 4 10 6 0 11 -4 11 -10z
m-245 -10 c-3 -5 -12 -10 -18 -10 -7 0 -6 4 3 10 19 12 23 12 15 0z m683 -20
c-7 -10 -14 -18 -15 -16 -6 6 9 36 18 36 5 0 4 -9 -3 -20z m170 -7 c15 -20 8
-73 -11 -85 -14 -9 -82 -10 -114 -2 -30 8 -49 55 -32 83 17 26 33 31 94 26 32
-3 55 -11 63 -22z m-768 -2 c0 -5 -7 -11 -15 -15 -8 -3 -15 -12 -15 -21 0 -8
-4 -15 -10 -15 -15 0 -12 21 7 42 17 19 33 24 33 9z m1565 -11 c3 -5 -1 -10
-9 -10 -9 0 -16 5 -16 10 0 6 4 10 9 10 6 0 13 -4 16 -10z m-14 -38 c-7 -2
-18 1 -23 6 -8 8 -4 9 13 5 13 -4 18 -8 10 -11z m-942 -37 c13 -14 19 -25 14
-25 -5 0 -20 11 -33 25 -13 14 -19 25 -14 25 5 0 20 -12 33 -25z m1176 7 c-3
-3 -11 0 -18 7 -9 10 -8 11 6 5 10 -3 15 -9 12 -12z m-1995 -2 c0 -5 -5 -10
-11 -10 -5 0 -7 5 -4 10 3 6 8 10 11 10 2 0 4 -4 4 -10z m1003 -16 c-7 -3 -9
-12 -6 -20 6 -17 -1 -18 -30 -2 l-22 12 25 7 c29 8 51 10 33 3z m977 -1 c0 -5
-10 -9 -22 -9 -13 -1 -34 -5 -48 -8 -21 -5 -20 -4 5 8 33 16 65 20 65 9z m62
-10 c27 -25 22 -33 -14 -21 -41 14 -42 14 -33 27 9 16 26 14 47 -6z m-2058 -2
c3 -5 -1 -11 -9 -15 -8 -3 -17 0 -21 6 -4 7 -3 8 4 4 7 -4 12 -2 12 3 0 13 7
14 14 2z m39 -5 c4 -10 1 -13 -9 -9 -15 6 -19 23 -5 23 5 0 11 -7 14 -14z m97
5 c0 -6 -4 -13 -10 -16 -5 -3 -10 1 -10 9 0 9 5 16 10 16 6 0 10 -4 10 -9z
m680 -7 c0 -13 8 -15 39 -12 22 2 37 0 35 -4 -3 -5 2 -8 10 -8 18 0 30 -34 22
-65 -11 -42 -124 -61 -153 -25 -19 24 -15 67 7 83 13 9 18 20 14 31 -4 11 -1
16 10 16 9 0 16 -7 16 -16z m83 9 c-7 -2 -19 -2 -25 0 -7 3 -2 5 12 5 14 0 19
-2 13 -5z m51 -25 c-9 -15 -22 -8 -19 10 2 9 4 19 4 22 1 3 5 -2 10 -10 6 -8
7 -18 5 -22z m1026 2 c-8 -5 -24 -9 -35 -9 -16 1 -16 2 5 9 35 11 48 11 30 0z
m-2029 -53 c-25 -39 -27 -28 -4 21 9 19 19 30 21 24 2 -7 -6 -27 -17 -45z
m794 27 c-13 -21 -14 -31 -6 -56 15 -41 13 -47 -4 -24 -8 11 -15 30 -15 43 0
26 20 63 34 63 4 0 1 -12 -9 -26z m1245 -4 c0 -5 -5 -10 -11 -10 -5 0 -7 5 -4
10 3 6 8 10 11 10 2 0 4 -4 4 -10z m128 -9 c3 -8 -1 -12 -9 -9 -7 2 -15 10
-17 17 -3 8 1 12 9 9 7 -2 15 -10 17 -17z m-43 -28 c-3 -8 9 -15 34 -19 28 -4
41 -12 45 -26 3 -15 11 -19 25 -15 20 5 39 -8 28 -20 -8 -8 -77 17 -77 28 0 5
-9 9 -20 9 -11 0 -20 5 -20 11 0 6 -7 9 -15 6 -8 -4 -17 -2 -20 3 -4 6 -18 10
-33 10 -15 1 -38 7 -51 14 -22 12 -19 13 42 12 49 -1 66 -4 62 -13z m-2095 -3
c0 -5 -5 -10 -11 -10 -5 0 -7 5 -4 10 3 6 8 10 11 10 2 0 4 -4 4 -10z m1937
-52 c-3 -7 -5 -2 -5 12 0 14 2 19 5 13 2 -7 2 -19 0 -25z m258 22 c3 -5 1 -10
-4 -10 -6 0 -11 5 -11 10 0 6 2 10 4 10 3 0 8 -4 11 -10z m-1230 -11 c-8 -12
-56 -32 -63 -25 -2 3 11 12 29 20 43 18 41 18 34 5z m-1040 -40 c-10 -15 -25
-10 -19 6 4 8 10 12 15 9 5 -3 7 -10 4 -15z m835 0 c0 -5 -4 -9 -10 -9 -5 0
-10 7 -10 16 0 8 5 12 10 9 6 -3 10 -10 10 -16z m88 -4 c-3 -3 -13 -2 -22 1
-14 5 -15 9 -4 15 13 8 36 -6 26 -16z m112 5 c-8 -6 -24 -9 -35 -9 l-20 1 20
5 c11 3 24 9 29 14 5 5 12 6 15 3 3 -3 -1 -9 -9 -14z m1020 -23 c0 -4 10 -12
23 -18 19 -8 18 -9 -8 -3 -35 7 -55 21 -55 40 0 12 4 12 20 2 11 -7 20 -16 20
-21z m275 13 c3 -5 -1 -10 -10 -10 -9 0 -13 5 -10 10 3 6 8 10 10 10 2 0 7 -4
10 -10z m35 -25 c11 -13 10 -14 -4 -9 -9 3 -16 10 -16 15 0 13 6 11 20 -6z
m-2436 -41 c3 -8 2 -12 -4 -9 -6 3 -10 10 -10 16 0 14 7 11 14 -7z m2226 -3
l24 -19 -37 11 c-20 7 -37 15 -37 19 0 14 24 8 50 -11z m-2153 -7 c-3 -3 -12
-4 -19 -1 -8 3 -5 6 6 6 11 1 17 -2 13 -5z m2060 0 c-3 -3 -12 -4 -19 -1 -8 3
-5 6 6 6 11 1 17 -2 13 -5z m265 -23 c90 -57 208 -194 208 -241 0 -23 -17 -8
-30 28 -21 60 -202 222 -247 222 -7 0 -13 5 -13 10 0 19 36 10 82 -19z m-2482
-10 c0 -5 -7 -12 -16 -15 -14 -5 -15 -4 -4 9 14 17 20 19 20 6z m2364 0 c3 -5
-5 -11 -19 -13 -20 -4 -23 -3 -14 8 13 16 25 18 33 5z m-2404 -41 c0 -5 -8
-10 -17 -10 -15 0 -16 2 -3 10 19 12 20 12 20 0z m2480 6 c0 -2 -9 -6 -20 -9
-11 -3 -18 -1 -14 4 5 9 34 13 34 5z m-1627 -23 c-13 -2 -33 -2 -45 0 -13 2
-3 4 22 4 25 0 35 -2 23 -4z m1627 -3 c0 -5 -2 -10 -4 -10 -3 0 -8 5 -11 10
-3 6 -1 10 4 10 6 0 11 -4 11 -10z m-1570 -25 c8 -10 9 -15 2 -15 -6 0 -14 5
-17 11 -4 6 -22 8 -45 4 -21 -4 -40 -3 -43 2 -10 16 90 14 103 -2z m-117 -12
c-7 -2 -19 -2 -25 0 -7 3 -2 5 12 5 14 0 19 -2 13 -5z m1752 -3 c3 -5 1 -10
-4 -10 -6 0 -11 5 -11 10 0 6 2 10 4 10 3 0 8 -4 11 -10z m-1652 -11 c21 -10
24 -15 17 -45 -4 -18 -5 -35 -3 -38 7 -7 -57 -16 -101 -14 -21 1 -34 4 -27 6
6 2 8 14 5 28 -14 57 46 92 109 63z m-933 -9 c0 -5 -5 -10 -11 -10 -5 0 -7 5
-4 10 3 6 8 10 11 10 2 0 4 -4 4 -10z m2495 0 c3 -5 1 -10 -4 -10 -6 0 -11 5
-11 10 0 6 2 10 4 10 3 0 8 -4 11 -10z m122 -6 c-3 -3 -12 -4 -19 -1 -8 3 -5
6 6 6 11 1 17 -2 13 -5z m73 -74 c4 0 11 -16 17 -35 l11 -34 -24 16 c-19 12
-27 13 -39 3 -9 -8 -15 -8 -15 -2 0 6 6 13 13 16 9 5 9 7 -2 12 -11 5 -11 8 0
16 11 7 11 11 2 15 -7 2 -13 11 -13 19 0 11 5 10 22 -6 12 -11 25 -20 28 -20z
m-2780 16 c0 -3 -4 -8 -10 -11 -5 -3 -10 -1 -10 4 0 6 5 11 10 11 6 0 10 -2
10 -4z m-20 -30 c0 -3 -4 -8 -10 -11 -5 -3 -10 -1 -10 4 0 6 5 11 10 11 6 0
10 -2 10 -4z m27 -28 c-3 -7 -5 -2 -5 12 0 14 2 19 5 13 2 -7 2 -19 0 -25z
m587 18 c-21 -15 -30 -14 -19 3 3 6 14 11 23 11 13 0 13 -2 -4 -14z m73 -18
c-3 -7 -5 -2 -5 12 0 14 2 19 5 13 2 -7 2 -19 0 -25z m43 18 c0 -8 -4 -18 -10
-21 -5 -3 -10 3 -10 14 0 12 5 21 10 21 6 0 10 -6 10 -14z m144 5 c-2 -2 3
-12 12 -22 20 -22 21 -63 3 -85 -10 -13 -25 -15 -66 -11 -42 4 -53 3 -53 -9 0
-25 -34 -54 -64 -54 -61 0 -129 71 -97 103 16 16 13 30 -5 23 -14 -6 -15 -4
-4 9 10 12 15 13 20 4 5 -8 13 -8 26 -1 18 10 62 -2 76 -23 4 -5 8 0 8 12 0
36 43 61 99 60 27 -1 47 -4 45 -6z m-904 -39 c0 -4 -6 -14 -12 -21 -11 -11 -8
-13 17 -8 17 3 37 2 45 -4 11 -6 1 -9 -31 -9 -39 0 -47 -4 -57 -25 -7 -14 -12
-30 -12 -35 0 -17 18 -11 23 8 4 13 5 12 6 -5 1 -19 5 -21 41 -16 24 3 46 1
54 -6 8 -7 17 -8 20 -3 3 5 24 6 47 2 33 -6 49 -4 72 10 28 17 32 17 63 2 19
-8 34 -22 34 -29 0 -7 7 -13 15 -13 17 0 21 25 5 35 -14 8 7 46 37 69 15 11
23 14 19 8 -4 -7 -3 -12 3 -12 5 0 12 4 16 9 7 13 55 -32 55 -52 0 -18 21 -27
62 -27 37 0 58 -20 58 -58 0 -38 -19 -53 -75 -60 -32 -3 -45 -9 -46 -21 -1
-14 -2 -14 -6 1 -8 30 -34 30 -62 -1 -14 -16 -35 -33 -46 -38 -24 -12 -89 -7
-93 7 -5 15 -28 12 -43 -6 -9 -12 -23 -14 -48 -10 -20 3 -51 0 -69 -6 -25 -9
-40 -9 -63 -1 -26 10 -34 9 -47 -3 -13 -14 -13 -17 -1 -26 10 -7 7 -8 -11 -3
-23 6 -24 5 -7 -9 18 -14 18 -15 -3 -26 -11 -6 -35 -9 -53 -7 -31 4 -31 4 6 5
20 1 37 6 37 12 0 5 -20 7 -48 3 -43 -5 -49 -3 -59 18 -7 13 -14 40 -15 59 -3
32 -5 31 -17 -23 -14 -66 -42 -92 -86 -81 -25 6 -26 9 -19 48 18 112 103 293
141 302 30 8 70 -18 76 -48 3 -22 4 -22 11 -3 27 70 66 127 66 97z m2885 -42
c10 -11 16 -20 13 -20 -3 0 -13 9 -23 20 -10 11 -16 20 -13 20 3 0 13 -9 23
-20z m-2535 3 c-8 -3 -19 -11 -23 -17 -6 -8 -10 -8 -13 0 -3 6 -17 10 -32 8
-24 -3 -25 -3 -4 4 28 8 94 13 72 5z m2600 -19 c0 -8 -4 -12 -10 -9 -5 3 -10
13 -10 21 0 8 5 12 10 9 6 -3 10 -13 10 -21z m-140 -23 c22 -31 22 -33 3 -22
-20 10 -33 31 -33 53 0 13 -1 14 30 -31z m-2555 9 c3 -5 -1 -10 -9 -10 -9 0
-16 5 -16 10 0 6 4 10 9 10 6 0 13 -4 16 -10z m62 -17 c2 -6 -2 -13 -10 -16
-8 -3 -13 3 -14 15 -2 20 18 21 24 1z m623 7 c0 -5 -5 -10 -11 -10 -5 0 -7 5
-4 10 3 6 8 10 11 10 2 0 4 -4 4 -10z m1990 -11 c0 -6 -4 -7 -10 -4 -5 3 -10
11 -10 16 0 6 5 7 10 4 6 -3 10 -11 10 -16z m-2059 -8 c-12 -8 -51 -4 -51 5 0
2 15 4 33 4 22 0 28 -3 18 -9z m-221 -28 c0 -7 8 -13 17 -13 30 0 83 -24 83
-37 0 -7 -4 -13 -10 -13 -5 0 -10 5 -10 10 0 6 -7 10 -16 10 -8 0 -13 -4 -10
-9 4 -5 -4 -6 -16 -3 -19 5 -20 7 -5 10 24 5 22 22 -3 22 -11 0 -29 6 -40 13
-16 9 -22 9 -28 0 -6 -9 -12 -8 -23 5 -15 17 -13 18 23 18 23 -1 38 -6 38 -13z
m-15 -33 c3 -5 1 -10 -4 -10 -6 0 -11 5 -11 10 0 6 2 10 4 10 3 0 8 -4 11 -10z
m2253 -95 c19 -36 42 -105 34 -105 -10 0 -32 50 -32 71 0 24 -18 33 -22 12 -2
-10 -4 7 -4 37 -1 38 1 47 6 30 4 -14 12 -34 18 -45z m55 -5 c39 -60 65 -125
54 -136 -10 -10 -27 6 -27 25 0 9 -18 47 -40 84 -22 36 -40 71 -40 76 0 24 17
8 53 -49z m-2327 23 c-7 -7 -26 7 -26 19 0 6 6 6 15 -2 9 -7 13 -15 11 -17z
m-56 -18 c-7 -8 -17 -12 -23 -8 -6 4 -3 9 9 14 27 11 28 11 14 -6z m-57 -12
c-7 -2 -19 -2 -25 0 -7 3 -2 5 12 5 14 0 19 -2 13 -5z m114 1 c-3 -3 -12 -4
-19 -1 -8 3 -5 6 6 6 11 1 17 -2 13 -5z m-243 -58 c-7 -17 -34 -22 -34 -6 0 6
7 10 15 10 8 0 15 5 15 12 0 6 2 9 5 6 3 -3 3 -13 -1 -22z m-228 2 c4 -6 3 -8
-4 -4 -6 3 -13 2 -16 -3 -4 -5 2 -12 11 -14 13 -3 14 -5 3 -6 -22 -1 -44 15
-36 28 9 14 33 14 42 -1z m104 -9 c0 -5 -9 -9 -20 -9 -11 0 -20 4 -20 8 0 4 9
8 20 9 11 1 20 -2 20 -8z m44 -4 c3 -9 0 -15 -9 -15 -8 0 -15 7 -15 15 0 8 4
15 9 15 5 0 11 -7 15 -15z m-204 -4 c0 -4 -13 -8 -29 -7 -16 1 -27 4 -24 9 6
10 53 9 53 -2z m100 -1 c0 -5 -5 -10 -11 -10 -5 0 -7 5 -4 10 3 6 8 10 11 10
2 0 4 -4 4 -10z m2695 -11 c-10 -15 -25 -10 -19 6 4 8 10 12 15 9 5 -3 7 -10
4 -15z m-535 -15 c0 -14 -3 -14 -15 -4 -8 7 -15 14 -15 16 0 2 7 4 15 4 8 0
15 -7 15 -16z m40 6 c0 -5 -4 -10 -10 -10 -5 0 -10 5 -10 10 0 6 5 10 10 10 6
0 10 -4 10 -10z m40 0 c0 -5 -4 -10 -10 -10 -5 0 -10 5 -10 10 0 6 5 10 10 10
6 0 10 -4 10 -10z m50 -6 c0 -2 -7 -4 -15 -4 -8 0 -15 4 -15 10 0 5 7 7 15 4
8 -4 15 -8 15 -10z m60 -14 c0 -5 -2 -10 -4 -10 -3 0 -8 5 -11 10 -3 6 -1 10
4 10 6 0 11 -4 11 -10z m410 -25 c0 -5 -5 -3 -10 5 -5 8 -10 20 -10 25 0 6 5
3 10 -5 5 -8 10 -19 10 -25z m-3086 10 c-5 -12 4 -15 44 -15 31 0 52 5 55 13
2 6 8 9 12 5 17 -16 -21 -35 -62 -30 l-43 5 -2 -89 c-2 -49 -2 -123 0 -166 2
-45 -1 -79 -8 -83 -7 -4 -10 54 -10 184 0 117 4 191 10 191 5 0 7 -7 4 -15z
m2665 -10 c6 3 11 1 11 -4 0 -6 -6 -11 -12 -11 -19 1 -49 26 -41 34 4 4 13 0
20 -9 6 -10 16 -14 22 -10z m-199 11 c0 -11 -19 -15 -25 -6 -3 5 1 10 9 10 9
0 16 -2 16 -4z m537 -28 c-3 -7 -5 -2 -5 12 0 14 2 19 5 13 2 -7 2 -19 0 -25z
m-446 -8 c5 0 9 8 9 18 0 11 5 8 15 -12 19 -36 19 -56 0 -30 -17 23 -20 3 -4
-28 9 -17 13 -18 20 -7 6 10 9 11 9 1 0 -6 11 -35 25 -64 14 -28 23 -53 21
-55 -8 -8 -46 56 -47 79 0 13 -3 17 -6 9 -7 -17 -63 77 -62 104 1 17 2 17 6 3
2 -10 9 -18 14 -18z m-196 -21 c10 -29 3 -31 -18 -3 -15 20 -15 24 -3 24 8 0
18 -9 21 -21z m361 -16 c-11 -11 -17 4 -9 23 7 18 8 18 11 1 2 -10 1 -21 -2
-24z m-316 17 c8 -5 11 -10 5 -10 -5 0 -17 5 -25 10 -8 5 -10 10 -5 10 6 0 17
-5 25 -10z m93 -167 c-4 -11 -2 -14 5 -9 7 4 12 1 12 -8 0 -52 -41 4 -45 63
-2 14 -5 35 -8 46 -20 72 -12 76 12 7 17 -46 27 -90 24 -99z m-216 145 c-3 -8
-6 -5 -6 6 -1 11 2 17 5 13 3 -3 4 -12 1 -19z m403 7 c0 -9 12 -34 27 -58 15
-23 33 -51 39 -62 6 -11 28 -49 48 -83 40 -70 52 -125 17 -81 -10 13 -31 49
-46 79 -15 30 -47 87 -72 127 -41 66 -47 93 -22 93 5 0 9 -7 9 -15z m470 -7
c0 -16 -3 -19 -11 -11 -6 6 -8 16 -5 22 11 17 16 13 16 -11z m-401 -33 c0 -5
-4 -3 -9 5 -5 8 -9 22 -9 30 0 16 17 -16 18 -35z m-313 -15 c-3 -19 -1 -30 9
-34 8 -3 15 -11 15 -18 0 -8 -6 -6 -17 5 -18 18 -27 91 -10 80 5 -3 7 -18 3
-33z m-126 -10 c0 -16 5 -32 10 -35 6 -3 10 -18 9 -33 l-1 -27 -10 28 c-5 15
-13 27 -17 27 -5 0 -8 18 -8 40 0 22 4 37 8 34 5 -3 9 -18 9 -34z m98 24 c14
-15 14 -16 -3 -13 -10 2 -20 10 -23 17 -5 17 6 15 26 -4z m597 6 c3 -5 1 -10
-4 -10 -6 0 -11 5 -11 10 0 6 2 10 4 10 3 0 8 -4 11 -10z m-805 -15 c0 -11
-52 -25 -63 -18 -7 5 0 10 18 14 43 9 45 10 45 4z m77 -22 c-3 -3 -11 -2 -17
2 -9 6 -9 10 1 16 14 8 27 -7 16 -18z m513 7 c0 -5 -4 -10 -10 -10 -5 0 -10 5
-10 10 0 6 5 10 10 10 6 0 10 -4 10 -10z m35 -19 c-6 -21 -25 -29 -25 -11 0 6
5 10 10 10 6 0 10 8 10 17 0 9 3 14 6 10 3 -3 3 -15 -1 -26z m195 3 c0 -8 -4
-12 -10 -9 -5 3 -10 13 -10 21 0 8 5 12 10 9 6 -3 10 -13 10 -21z m-840 -63
c0 -9 4 -21 9 -26 10 -12 31 -95 31 -122 -1 -16 -2 -16 -10 -2 -5 9 -26 20
-45 23 -31 6 -35 10 -35 39 0 19 -3 27 -8 20 -4 -7 -8 9 -8 35 -1 26 1 34 3
18 3 -21 7 -25 13 -16 5 9 11 -2 15 -33 4 -26 12 -47 17 -47 12 0 2 78 -12 95
-7 9 -8 20 -1 54 3 11 31 -24 31 -38z m864 -18 c7 -63 1 -75 -32 -67 -19 5
-22 13 -20 48 l1 41 4 -37 c3 -29 9 -38 22 -38 16 0 17 5 10 43 -11 55 -11 67
0 67 4 0 11 -26 15 -57z m-209 37 c3 -5 1 -10 -4 -10 -6 0 -11 5 -11 10 0 6 2
10 4 10 3 0 8 -4 11 -10z m-212 -62 c36 -35 91 -88 123 -118 88 -82 135 -186
219 -483 14 -50 19 -58 38 -55 19 3 23 11 27 60 6 72 30 100 116 139 35 16 64
34 64 39 0 23 -125 3 -142 -22 -6 -10 -8 -8 -8 4 0 9 27 41 60 70 58 51 74 78
47 78 -19 0 -106 -59 -120 -82 -23 -36 -29 -17 -22 70 9 106 26 147 67 161 72
25 122 9 160 -52 52 -84 75 -194 58 -269 -31 -129 -94 -207 -220 -273 -50 -25
-93 -52 -94 -58 -2 -7 -9 -64 -15 -127 -6 -63 -19 -144 -30 -180 -28 -89 -112
-222 -191 -301 -60 -61 -210 -168 -263 -188 -12 -5 -51 -22 -87 -38 -193 -88
-408 -133 -633 -133 -166 0 -290 21 -453 75 l-137 46 -76 -25 c-103 -34 -155
-40 -231 -26 -152 28 -241 116 -270 269 -6 35 -6 60 2 83 17 49 76 118 102
118 19 0 168 -78 189 -99 4 -4 -14 -11 -42 -14 -68 -8 -141 -48 -141 -78 0
-14 26 -11 93 13 48 16 73 19 110 14 51 -8 55 -20 8 -29 -29 -6 -115 -71 -126
-96 -13 -31 20 -27 73 10 49 35 106 59 139 59 6 0 28 -23 49 -51 32 -43 39
-49 51 -36 15 15 17 9 -85 197 -40 74 -146 230 -210 308 -24 30 -42 55 -40 57
2 2 28 -5 58 -15 31 -11 83 -19 118 -20 55 0 63 2 60 17 -2 10 -18 27 -36 39
l-33 23 74 -6 c71 -5 147 8 147 26 0 5 20 16 44 25 25 9 50 24 56 32 7 7 24
14 39 14 16 0 77 34 158 88 72 48 152 99 177 114 l46 28 1 82 c1 100 16 70 18
-34 1 -74 15 -88 45 -44 8 13 49 59 91 101 48 48 78 87 82 106 8 40 19 45 28
12 14 -55 25 -52 146 37 43 32 103 73 135 90 l57 33 -7 56 c-3 31 -8 67 -11
81 -6 26 40 -60 48 -91 7 -24 33 -34 51 -20 18 15 31 164 17 209 -5 18 -6 32
-1 32 14 0 40 -55 66 -135 32 -101 47 -98 83 14 6 19 11 56 11 82 0 27 2 49 4
49 2 0 33 -28 69 -62z m267 6 c23 -50 22 -71 -1 -26 -8 15 -20 31 -26 35 -15
9 -17 37 -3 37 5 0 19 -21 30 -46z m17 14 c-3 -8 -6 -5 -6 6 -1 11 2 17 5 13
3 -3 4 -12 1 -19z m-1004 -45 c-7 -2 -19 -2 -25 0 -7 3 -2 5 12 5 14 0 19 -2
13 -5z m-69 -28 c20 -15 20 -15 0 -29 -17 -13 -18 -17 -5 -48 20 -51 26 -82
12 -74 -6 4 -11 17 -11 29 0 37 -12 46 -50 38 -26 -5 -31 -9 -17 -14 9 -3 17
-13 17 -22 0 -22 -17 -18 -23 6 -5 17 -9 19 -26 9 -12 -6 -21 -7 -21 -3 0 12
60 44 70 38 5 -3 14 4 20 15 6 11 7 20 3 20 -4 0 2 7 13 15 18 14 18 14 -4 15
-13 0 -20 4 -17 10 8 13 16 12 39 -5z m100 -41 c11 -28 -1 -28 -19 0 -10 14
-24 26 -31 26 -8 0 -14 5 -14 10 0 16 56 -16 64 -36z m1106 23 c23 6 22 4 -8
-28 -17 -19 -32 -37 -32 -41 0 -3 -8 -5 -17 -4 -20 3 -20 6 -8 53 6 27 10 31
25 23 9 -5 27 -6 40 -3z m-86 -12 c3 -9 0 -15 -9 -15 -8 0 -15 7 -15 15 0 8 4
15 9 15 5 0 11 -7 15 -15z m-1197 -21 c-3 -3 -12 -4 -19 -1 -8 3 -5 6 6 6 11
1 17 -2 13 -5z m260 0 c-3 -3 -12 -4 -19 -1 -8 3 -5 6 6 6 11 1 17 -2 13 -5z
m-287 -18 c0 -3 -4 -8 -10 -11 -5 -3 -10 -1 -10 4 0 6 5 11 10 11 6 0 10 -2
10 -4z m265 -6 c3 -5 -3 -10 -14 -10 -12 0 -21 5 -21 10 0 6 6 10 14 10 8 0
18 -4 21 -10z m235 -25 c0 -25 -14 -34 -24 -16 -8 12 3 41 15 41 5 0 9 -11 9
-25z m-179 -25 c12 0 17 -5 14 -11 -8 -12 22 -79 35 -79 5 0 8 6 6 13 -1 6 -1
9 1 5 2 -4 12 -4 21 -1 13 4 12 2 -3 -10 -31 -25 -40 -21 -64 28 -12 24 -26
47 -32 50 -5 4 -8 14 -8 23 1 15 2 15 6 0 2 -10 13 -18 24 -18z m-236 0 c-3
-5 -11 -10 -16 -10 -6 0 -7 5 -4 10 3 6 11 10 16 10 6 0 7 -4 4 -10z m1083
-26 c2 -28 2 -28 -13 -10 -18 24 -20 49 -2 44 6 -3 13 -18 15 -34z m-2961 -87
c1 -83 9 -137 28 -210 23 -91 25 -131 4 -110 -4 4 -19 66 -33 136 -29 141 -35
297 -13 297 9 0 13 -30 14 -113z m82 106 c0 -5 -4 -17 -9 -28 -8 -18 -9 -17
-9 8 -1 15 4 27 9 27 6 0 10 -3 9 -7z m1631 -8 c0 -8 -9 -15 -20 -15 -17 0
-19 2 -8 15 17 19 28 19 28 0z m66 0 c10 -26 -1 -35 -13 -10 -6 14 -7 25 -2
25 5 0 12 -7 15 -15z m388 -9 c-6 -16 -24 -23 -24 -8 0 10 22 33 27 28 2 -2 1
-11 -3 -20z m49 17 c-7 -2 -13 -9 -13 -14 0 -13 21 -11 39 5 10 9 23 11 36 6
17 -7 17 -9 3 -9 -10 -1 -18 -4 -18 -8 0 -8 -51 -35 -56 -30 -1 1 -5 14 -9 30
-6 22 -4 27 11 26 11 0 14 -3 7 -6z m-576 -19 c18 -17 8 -45 -15 -50 -7 -1 -8
0 -2 3 13 6 13 33 0 33 -5 0 -10 7 -10 15 0 19 7 19 27 -1z m235 -54 c4 0 8 8
8 17 0 14 2 15 13 4 9 -11 9 -15 0 -18 -8 -3 -10 -15 -6 -35 4 -22 3 -29 -5
-24 -7 4 -12 15 -12 25 0 9 -4 21 -9 27 -5 5 -11 20 -14 34 -6 23 -5 23 5 -2
7 -16 15 -28 20 -28z m55 28 c-3 -8 -6 -5 -6 6 -1 11 2 17 5 13 3 -3 4 -12 1
-19z m-151 -44 c-19 -19 -21 -11 -4 16 7 11 14 16 16 10 2 -5 -4 -17 -12 -26z
m-1696 -10 c0 -14 -4 -23 -10 -19 -5 3 -10 15 -10 26 0 10 5 19 10 19 6 0 10
-12 10 -26z m1545 6 c3 -5 1 -10 -4 -10 -6 0 -11 5 -11 10 0 6 2 10 4 10 3 0
8 -4 11 -10z m177 -32 c-4 -28 -6 -30 -12 -13 -8 21 -3 45 9 45 4 0 5 -15 3
-32z m122 -27 c8 -13 -11 -61 -24 -61 -5 0 -10 7 -10 15 0 8 5 15 10 15 6 0
10 7 10 16 0 14 -3 14 -15 4 -9 -8 -15 -8 -15 -2 0 9 15 19 32 21 4 1 9 -3 12
-8z m-1840 -46 c-2 -63 -11 -67 -15 -6 -3 30 0 51 6 51 6 0 9 -20 9 -45z
m1556 24 c0 -5 -4 -9 -10 -9 -5 0 -10 7 -10 16 0 8 5 12 10 9 6 -3 10 -10 10
-16z m177 -21 c-3 -7 -5 -2 -5 12 0 14 2 19 5 13 2 -7 2 -19 0 -25z m-200 -30
c-3 -7 -5 -2 -5 12 0 14 2 19 5 13 2 -7 2 -19 0 -25z m68 -23 c6 -54 2 -75
-16 -75 -5 0 -9 29 -9 65 0 79 15 85 25 10z m-45 -31 c0 -13 -4 -24 -10 -24
-5 0 -10 14 -10 31 0 17 4 28 10 24 6 -3 10 -17 10 -31z m-1550 -14 c0 -5 -2
-10 -4 -10 -3 0 -8 5 -11 10 -3 6 -1 10 4 10 6 0 11 -4 11 -10z m1553 -40 c-4
-14 0 -20 11 -20 9 0 16 -7 16 -15 0 -8 -4 -15 -10 -15 -14 0 -32 39 -26 56 8
21 15 17 9 -6z m-1233 -20 c0 -23 -29 -35 -36 -15 -4 8 -4 22 0 30 7 20 36 8
36 -15z m1110 16 c-18 -16 -70 -30 -70 -18 0 9 46 29 70 31 13 1 13 -1 0 -13z
m116 -64 c6 -28 4 -32 -14 -32 -12 0 -24 5 -27 11 -4 6 -17 14 -29 19 -18 7
-16 8 11 7 17 -1 31 -6 30 -11 -1 -5 4 -11 12 -14 11 -3 12 0 6 14 -15 38 -18
60 -7 49 7 -6 15 -25 18 -43z m-1499 11 c-4 -3 2 -12 13 -20 11 -8 20 -20 19
-26 0 -9 -2 -9 -6 1 -2 6 -13 12 -23 12 -25 0 -36 20 -19 31 17 10 25 12 16 2z
m1261 -14 c-10 -6 -8 -12 7 -23 11 -8 17 -17 13 -21 -4 -4 -23 5 -43 20 -31
24 -39 26 -60 17 -14 -7 -25 -8 -25 -3 0 14 20 19 73 18 28 0 42 -4 35 -8z
m52 -18 c0 -5 3 -17 7 -27 5 -13 3 -15 -7 -9 -10 6 -12 4 -7 -8 4 -11 2 -14
-8 -11 -11 5 -12 10 -2 25 10 16 9 21 -3 29 -13 8 -12 10 3 10 9 0 17 -4 17
-9z m53 -17 c32 -27 45 -57 21 -47 -8 3 -11 9 -8 14 3 5 -1 9 -8 9 -13 1 -55
50 -42 50 3 0 20 -12 37 -26z m-163 -53 c0 -11 -6 -9 -20 7 -11 12 -20 24 -20
27 0 3 9 0 20 -7 11 -7 20 -19 20 -27z m167 -1 c9 0 14 -2 11 -5 -3 -4 -17 -3
-31 0 -18 5 -24 12 -20 22 5 13 7 13 15 -1 5 -9 16 -16 25 -16z m-1277 10 c0
-5 -4 -10 -9 -10 -6 0 -13 5 -16 10 -3 6 1 10 9 10 9 0 16 -4 16 -10z m-140
-25 c0 -28 -15 -34 -24 -9 -10 25 -7 34 9 34 9 0 15 -9 15 -25z m755 5 c3 -5
-1 -10 -9 -10 -10 0 -13 -6 -10 -15 4 -8 1 -15 -5 -15 -12 0 -15 32 -4 43 9
10 21 9 28 -3z m555 -33 c10 -4 8 -6 -7 -6 -13 -1 -23 1 -23 3 0 2 -3 13 -6
23 -5 16 -4 16 8 2 7 -9 20 -18 28 -22z m-60 13 c8 -5 12 -12 9 -15 -8 -8 -39
5 -39 16 0 11 11 11 30 -1z m-450 -10 c0 -5 -7 -7 -15 -4 -8 4 -15 8 -15 10 0
2 7 4 15 4 8 0 15 -4 15 -10z m-630 -32 c0 -6 -6 -5 -15 2 -8 7 -15 14 -15 16
0 2 7 1 15 -2 8 -4 15 -11 15 -16z m1173 9 c-13 -7 -42 -10 -70 -7 l-48 5 60
6 c33 3 65 6 70 7 6 1 0 -4 -12 -11z m-1113 -7 c0 -5 -7 -10 -15 -10 -10 0
-15 -11 -16 -32 -1 -31 -2 -31 -8 -8 -4 14 -3 33 3 43 12 18 36 23 36 7z m416
-9 c-4 -6 -22 -13 -41 -17 -38 -7 -46 -20 -17 -27 13 -4 11 -5 -5 -6 -16 -1
-23 5 -23 18 0 21 19 31 56 31 13 0 24 5 24 12 0 6 3 9 6 5 3 -3 3 -10 0 -16z
m99 -11 c4 -18 11 -27 18 -23 7 4 8 0 4 -11 -5 -12 -2 -16 11 -14 10 2 16 -2
14 -11 -2 -8 11 -32 29 -53 31 -40 33 -56 4 -45 -8 4 -15 16 -15 28 0 12 -3
20 -6 16 -9 -8 -42 23 -75 70 -34 48 -37 73 -10 73 13 0 21 -9 26 -30z m145
20 c0 -5 -5 -10 -11 -10 -5 0 -7 5 -4 10 3 6 8 10 11 10 2 0 4 -4 4 -10z m76
-19 c-4 -6 -12 -11 -18 -11 -7 0 -7 4 1 13 6 8 9 16 7 19 -1 3 1 2 7 -2 5 -5
6 -13 3 -19z m65 11 c12 -11 18 -21 13 -24 -5 -4 -22 5 -37 18 -33 28 -11 34
24 6z m139 3 c0 -8 -7 -15 -16 -15 -14 0 -14 3 -4 15 7 8 14 15 16 15 2 0 4
-7 4 -15z m-486 -10 c-4 -8 -10 -15 -15 -15 -5 0 -9 7 -9 15 0 8 7 15 15 15 9
0 12 -6 9 -15z m166 4 c0 -7 7 -17 16 -24 9 -6 15 -16 13 -21 -2 -6 -17 5 -32
23 -22 25 -25 33 -13 33 9 0 16 -5 16 -11z m75 -9 c3 -5 1 -10 -4 -10 -6 0
-11 5 -11 10 0 6 2 10 4 10 3 0 8 -4 11 -10z m363 -1 c-13 -7 -83 -13 -103 -9
-14 3 54 16 88 16 18 0 23 -2 15 -7z m-280 -10 c-2 -6 -8 -10 -13 -10 -5 0
-11 4 -13 10 -2 6 4 11 13 11 9 0 15 -5 13 -11z m-358 -9 c0 -5 -8 -10 -17
-10 -15 0 -16 2 -3 10 19 12 20 12 20 0z m69 -26 c12 -15 21 -32 21 -37 0 -6
12 -21 28 -34 15 -12 22 -22 15 -23 -17 0 -53 40 -53 59 0 13 -2 13 -9 2 -5
-7 -14 -10 -21 -6 -9 6 -9 9 1 16 10 6 9 12 -5 28 -11 12 -14 21 -8 21 6 0 20
-12 31 -26z m351 16 c0 -5 -7 -10 -15 -10 -8 0 -15 5 -15 10 0 6 7 10 15 10 8
0 15 -4 15 -10z m-833 -22 c-3 -8 -6 -5 -6 6 -1 11 2 17 5 13 3 -3 4 -12 1
-19z m443 7 c10 -12 10 -15 -4 -15 -9 0 -16 7 -16 15 0 8 2 15 4 15 2 0 9 -7
16 -15z m386 -15 c14 0 22 4 19 10 -9 14 6 12 35 -6 14 -8 17 -13 8 -10 -10 3
-20 1 -24 -5 -6 -10 -34 -5 -71 13 -12 6 -20 15 -16 21 3 5 10 2 15 -7 5 -9
20 -16 34 -16z m-136 10 c-8 -5 -22 -9 -30 -9 -10 0 -8 3 5 9 27 12 43 12 25
0z m-631 -32 c10 -28 9 -35 -5 -45 -14 -10 -13 -12 12 -10 26 2 29 -1 31 -32
1 -19 7 -37 13 -41 6 -4 12 -11 12 -16 0 -19 26 -70 41 -83 21 -17 22 -41 2
-41 -15 0 -65 66 -65 86 0 6 -11 24 -25 40 -27 31 -31 44 -15 44 6 0 10 5 10
11 0 6 -6 9 -14 6 -19 -8 -32 43 -14 54 10 7 10 11 0 21 -14 14 -16 38 -3 38
5 0 14 -15 20 -32z m303 -7 c2 -22 0 -37 -4 -35 -8 5 -11 74 -4 74 2 0 6 -18
8 -39z m379 -9 c-14 -5 -51 17 -51 29 0 6 14 2 30 -8 17 -10 26 -19 21 -21z
m-751 7 c0 -14 -17 -10 -23 5 -4 10 -1 13 9 9 7 -3 14 -9 14 -14z m25 1 c3 -5
1 -10 -4 -10 -6 0 -11 5 -11 10 0 6 2 10 4 10 3 0 8 -4 11 -10z m108 -78 c4
-21 3 -31 -3 -27 -6 3 -10 20 -10 37 0 38 5 34 13 -10z m30 18 c3 -11 1 -23
-4 -26 -5 -3 -9 6 -9 20 0 31 6 34 13 6z m-9 -75 c-4 -8 -8 -15 -10 -15 -2 0
-4 7 -4 15 0 8 4 15 10 15 5 0 7 -7 4 -15z m9 -30 c-3 -9 -8 -14 -10 -11 -3 3
-2 9 2 15 9 16 15 13 8 -4z m254 -42 c-3 -10 -5 -4 -5 12 0 17 2 24 5 18 2 -7
2 -21 0 -30z m43 17 c0 -5 -4 -10 -10 -10 -5 0 -10 5 -10 10 0 6 5 10 10 10 6
0 10 -4 10 -10z m-223 -20 c13 0 13 -3 3 -15 -10 -12 -10 -18 0 -30 11 -13 10
-14 -4 -9 -9 3 -16 12 -16 19 0 8 -8 22 -17 31 -17 17 -17 18 0 11 10 -4 26
-7 34 -7z m233 -20 c9 -16 8 -20 -5 -20 -8 0 -15 9 -15 20 0 11 2 20 5 20 2 0
9 -9 15 -20z m-227 -57 c4 -2 7 -11 7 -19 0 -22 -28 -16 -57 12 l-26 26 34 -7
c19 -4 37 -9 42 -12z m148 -11 c-7 -2 -18 1 -23 6 -8 8 -4 9 13 5 13 -4 18 -8
10 -11z m92 -2 c3 -12 14 -20 25 -20 12 0 24 -5 28 -11 9 -15 -36 -1 -57 17
-8 8 -26 14 -40 15 l-24 1 25 8 c37 12 37 12 43 -10z m-133 1 c0 -6 -4 -13
-10 -16 -5 -3 -10 1 -10 9 0 9 5 16 10 16 6 0 10 -4 10 -9z m-56 -66 c29 -22
15 -25 -19 -4 -16 11 -23 19 -15 19 8 -1 24 -7 34 -15z m1721 -554 c12 -56 78
-101 148 -101 10 0 17 -6 15 -12 -5 -16 -121 -104 -171 -130 -59 -30 -175 -56
-283 -63 l-99 -7 59 36 c104 64 220 147 243 175 17 19 23 39 23 73 0 40 3 47
23 51 12 2 25 5 29 6 3 0 9 -12 13 -28z m265 -111 c0 -10 -93 -102 -140 -138
-82 -64 -238 -116 -385 -128 -91 -7 -265 11 -265 28 0 6 21 7 53 2 144 -21
360 7 472 61 71 34 181 112 224 159 25 27 41 33 41 16z m97 -39 c35 -22 84
-92 217 -311 49 -80 104 -169 122 -197 19 -29 34 -57 34 -61 0 -13 -380 -203
-399 -200 -8 2 -16 14 -18 28 -2 34 -43 232 -49 242 -3 4 -14 8 -25 8 -26 0
-25 -19 10 -224 18 -106 33 -171 42 -177 8 -5 26 -9 40 -9 26 0 26 -2 48 -137
36 -219 60 -325 79 -346 27 -30 67 -47 112 -47 33 0 48 6 71 30 31 31 32 53 4
110 -7 14 -18 79 -25 145 -7 66 -18 173 -24 239 l-12 119 30 18 c17 11 35 17
41 16 5 -2 13 -24 17 -48 3 -24 25 -132 48 -239 46 -218 80 -380 80 -386 0 -2
-14 -11 -31 -19 -161 -84 -907 -142 -1204 -94 -98 16 -256 61 -262 75 -5 14
14 131 58 359 16 82 29 159 29 172 0 17 6 23 23 23 41 0 48 -12 43 -76 -3 -32
-8 -122 -11 -199 -3 -77 -11 -164 -17 -193 -8 -39 -8 -58 0 -78 14 -30 75 -58
108 -50 38 10 91 64 108 109 12 33 46 342 46 422 0 8 12 13 35 12 64 -2 70 15
67 171 -4 173 -12 237 -32 237 -13 0 -15 -26 -18 -154 l-3 -153 -37 6 c-89 16
-447 88 -451 91 -5 6 26 91 112 305 l83 205 35 -3 c214 -15 312 -14 405 8 142
33 236 84 336 184 46 45 88 83 93 84 6 1 24 -7 42 -17z m393 -628 c-1 -14 -84
-61 -225 -126 -144 -67 -224 -97 -150 -55 65 36 359 186 368 187 4 0 7 -2 7
-6z m-1364 -203 c193 -41 342 -78 322 -79 -33 -2 -394 65 -460 85 -18 5 -25
24 -10 24 5 0 71 -13 148 -30z m1158 -22 c3 -24 12 -122 21 -218 9 -96 24
-199 32 -228 11 -42 12 -56 3 -67 -17 -21 -63 -19 -92 5 -28 21 -42 78 -78
305 -12 72 -23 142 -26 157 -5 25 -1 30 53 57 32 16 63 29 70 30 7 1 14 -17
17 -41z m-950 -94 l39 -7 -7 -126 c-13 -244 -27 -313 -71 -357 -19 -20 -51
-24 -70 -11 -16 13 -17 20 -7 73 6 32 14 140 17 239 4 99 9 186 11 194 3 8 13
11 27 8 12 -3 39 -9 61 -13z m1220 -543 c8 -12 -168 -67 -289 -90 -245 -47
-764 -62 -955 -28 -121 21 -283 70 -288 87 -6 16 23 11 153 -30 140 -43 258
-54 540 -47 329 8 653 48 770 96 58 23 62 24 69 12z m-68 -122 c2 -13 12 -100
23 -194 11 -93 22 -192 23 -220 l3 -50 -100 -18 c-105 -19 -351 -26 -436 -13
l-46 7 -11 122 c-7 67 -13 130 -14 141 -2 14 9 22 49 35 64 19 100 48 84 64
-8 8 -24 7 -58 -6 -70 -24 -288 -77 -318 -77 -15 0 -35 -5 -46 -11 -32 -16 -5
-39 46 -39 l42 0 -13 -67 c-7 -38 -13 -87 -14 -110 0 -32 -5 -45 -21 -53 -31
-17 -293 -3 -414 22 -55 12 -112 23 -127 25 -42 8 -47 21 -37 93 5 36 13 125
17 197 5 73 11 135 14 138 2 3 40 -4 84 -15 243 -62 864 -44 1159 34 50 13 94
23 99 22 5 -1 11 -13 12 -27z m-1130 -539 c38 -5 90 -10 116 -10 l46 0 4 -237
c3 -226 4 -240 26 -274 40 -66 22 -89 -70 -89 -64 0 -119 14 -147 38 -35 29
-69 218 -87 491 l-7 104 25 -6 c14 -4 56 -11 94 -17z m1004 -51 c0 -87 -32
-408 -46 -456 -15 -55 -44 -91 -79 -98 -57 -11 -149 -14 -166 -5 -25 14 -24
26 6 62 24 28 25 35 24 156 0 70 -4 181 -8 247 -3 66 -3 122 0 125 4 3 66 5
138 6 l131 0 0 -37z"/>
<path d="M4425 5710 c3 -5 10 -10 16 -10 5 0 9 5 9 10 0 6 -7 10 -16 10 -8 0
-12 -4 -9 -10z"/>
<path d="M3936 4625 c-89 -31 -170 -96 -210 -166 -28 -49 -31 -63 -31 -139 0
-102 20 -147 96 -221 65 -64 181 -104 275 -95 139 12 251 82 304 190 29 59 32
72 28 138 -9 162 -115 276 -285 308 -80 14 -99 13 -177 -15z m233 -42 c65 -21
129 -76 161 -139 38 -74 36 -170 -6 -244 -98 -175 -403 -203 -525 -49 -36 46
-69 126 -69 169 0 50 37 141 72 178 86 88 244 125 367 85z"/>
<path d="M3945 4563 c-11 -3 -33 -15 -50 -26 -136 -94 -159 -275 -48 -379 57
-53 111 -73 198 -73 93 0 135 18 203 86 100 100 88 267 -25 347 -61 43 -197
65 -278 45z m170 -73 c21 -8 26 -16 23 -36 -4 -37 -29 -51 -62 -36 -31 14 -36
55 -8 71 21 13 16 13 47 1z"/>
<path d="M2879 4058 c-100 -35 -171 -94 -210 -173 -76 -154 -15 -325 145 -408
58 -30 67 -32 171 -32 99 0 116 3 168 27 31 15 78 48 103 74 62 63 86 120 88
208 2 132 -79 250 -203 297 -87 32 -182 35 -262 7z m242 -44 c63 -20 122 -74
155 -140 24 -48 26 -63 22 -129 -4 -60 -11 -84 -34 -121 -84 -135 -284 -183
-433 -104 -135 72 -186 210 -127 343 36 82 128 144 251 170 30 7 115 -3 166
-19z"/>
<path d="M2865 3983 c-76 -40 -133 -123 -142 -206 -7 -69 8 -114 57 -170 107
-121 300 -123 415 -2 53 55 68 98 63 181 -5 85 -42 136 -128 182 -56 29 -70
32 -148 32 -59 -1 -97 -6 -117 -17z m209 -66 c11 -8 17 -23 14 -38 -2 -20 -9
-25 -39 -27 -46 -4 -67 18 -51 53 13 28 47 33 76 12z"/>
<path d="M3715 3866 c-19 -35 -15 -66 8 -66 26 0 39 26 31 64 -8 45 -16 45
-39 2z m16 -39 c-8 -8 -11 -7 -11 4 0 20 13 34 18 19 3 -7 -1 -17 -7 -23z"/>
<path d="M4485 4930 c-3 -5 -1 -10 4 -10 6 0 11 5 11 10 0 6 -2 10 -4 10 -3 0
-8 -4 -11 -10z"/>
<path d="M4480 4899 c0 -5 5 -7 10 -4 6 3 10 8 10 11 0 2 -4 4 -10 4 -5 0 -10
-5 -10 -11z"/>
<path d="M4564 2387 c-6 -16 12 -67 24 -67 4 0 13 5 18 10 8 8 24 -4 54 -36
l43 -47 -34 -18 c-42 -22 -82 -24 -99 -4 -7 8 -21 15 -31 15 -34 0 -21 -36 32
-85 l51 -48 -26 -24 c-39 -36 -31 -79 24 -132 25 -24 30 -34 24 -53 -10 -29
-6 -48 13 -70 12 -13 12 -21 3 -38 -9 -17 -8 -26 5 -47 12 -18 14 -28 6 -36
-15 -15 -14 -50 1 -65 20 -20 48 -14 48 10 0 12 7 30 16 39 15 17 15 20 0 44
-12 18 -15 36 -11 56 5 21 1 36 -15 56 -14 18 -17 30 -10 37 15 15 12 47 -7
68 -16 18 -16 19 5 25 24 6 37 40 28 71 -4 11 -21 27 -39 36 l-32 16 41 -6
c46 -7 78 6 95 37 17 32 -32 120 -112 201 -66 66 -103 84 -115 55z m179 -217
c5 -21 -1 -24 -43 -20 -42 3 -44 12 -9 31 38 19 44 18 52 -11z"/>
<path d="M4766 1724 c-10 -26 -7 -34 14 -34 20 0 44 32 33 44 -12 12 -41 6
-47 -10z"/>
<path d="M4664 1586 c-15 -25 -15 -28 10 -70 30 -51 79 -96 106 -96 24 0 43
25 42 58 0 15 11 40 25 56 21 26 22 31 10 50 -12 18 -26 21 -95 24 -77 3 -82
2 -98 -22z"/>
</g>
</svg>
